<svg width="35" height="56" viewBox="0 0 35 56" fill="none" xmlns="http://www.w3.org/2000/svg">
<rect width="28" height="50" transform="translate(3.70789 3)" fill="white"/>
<path fill-rule="evenodd" clip-rule="evenodd" d="M29.6909 3H4C3.44772 3 3 3.44772 3 4V52C3 52.5523 3.44772 53 4 53H29.6909C30.2432 53 30.6909 52.5523 30.6909 52V4C30.6909 3.44772 30.2432 3 29.6909 3ZM4 0C1.79086 0 0 1.79086 0 4V52C0 54.2091 1.79086 56 4 56H29.6909C31.9 56 33.6909 54.2091 33.6909 52V4C33.6909 1.79086 31.9 0 29.6909 0H4Z" transform="translate(0.707886)" fill="#333333"/>
<path d="M0 1.80645C0 0.808776 0.808776 0 1.80645 0H7.38198C8.37965 0 9.18843 0.808776 9.18843 1.80645C9.18843 2.80413 8.37965 3.6129 7.38198 3.6129H1.80645C0.808776 3.6129 0 2.80413 0 1.80645Z" transform="translate(13.5717 47.5698)" fill="#333333"/>
<path fill-rule="evenodd" clip-rule="evenodd" d="M0 0H22V40H0V34.4036H9.07288C9.93038 34.4036 10.6255 33.7084 10.6255 32.8509C10.6255 31.9934 9.93038 31.2983 9.07288 31.2983H0V29.2281H3.8323C4.6898 29.2281 5.38493 28.533 5.38493 27.6754C5.38493 26.8179 4.6898 26.1228 3.8323 26.1228H0V0Z" transform="translate(6.70789 6)" fill="#F2C94C"/>
</svg>
