<svg width="54" height="56" viewBox="0 0 54 56" version="1.1" xmlns="http://www.w3.org/2000/svg" xmlns:xlink="http://www.w3.org/1999/xlink">
<g id="Canvas" fill="none">
<g id="Group">
<g id="Rectangle 59">
<path d="M 0 0L 28 0L 28 50L 0 50L 0 0Z" transform="translate(3 3)" fill="white"/>
</g>
<g id="Rectangle 8 (Stroke)">
<path fill-rule="evenodd" clip-rule="evenodd" d="M 29.6909 3L 4 3C 3.44772 3 3 3.44772 3 4L 3 52C 3 52.5523 3.44772 53 4 53L 29.6909 53C 30.2432 53 30.6909 52.5523 30.6909 52L 30.6909 4C 30.6909 3.44772 30.2432 3 29.6909 3ZM 4 0C 1.79086 0 0 1.79086 0 4L 0 52C 0 54.2091 1.79086 56 4 56L 29.6909 56C 31.9 56 33.6909 54.2091 33.6909 52L 33.6909 4C 33.6909 1.79086 31.9 0 29.6909 0L 4 0Z" fill="#333333"/>
</g>
<g id="Rectangle 9">
<path d="M 0 1.80645C 0 0.808776 0.808776 0 1.80645 0L 7.38198 0C 8.37965 0 9.18843 0.808776 9.18843 1.80645C 9.18843 2.80413 8.37965 3.6129 7.38198 3.6129L 1.80645 3.6129C 0.808776 3.6129 0 2.80413 0 1.80645Z" transform="translate(12.8638 47.5698)" fill="#333333"/>
</g>
<g id="Subtract">
<path fill-rule="evenodd" clip-rule="evenodd" d="M 0 0L 22 0L 22 40L 0 40L 0 34.4035L 9.07288 34.4035C 9.93039 34.4035 10.6255 33.7084 10.6255 32.8509C 10.6255 31.9934 9.93039 31.2983 9.07288 31.2983L 0 31.2983L 0 29.2281L 3.83231 29.2281C 4.68979 29.2281 5.38495 28.5329 5.38495 27.6754C 5.38495 26.8179 4.68979 26.1228 3.83231 26.1228L 0 26.1228L 0 0Z" transform="translate(6 6)" fill="#F2C94C"/>
</g>
<g id="Rectangle 67">
<path d="M 0 5.15234C 0 2.30678 2.30678 0 5.15234 0C 7.9979 0 10.3047 2.30678 10.3047 5.15234L 10.3047 16.7743C 10.3047 19.6199 7.9979 21.9267 5.15234 21.9267C 2.30678 21.9267 0 19.6199 0 16.7743L 0 5.15234Z" transform="matrix(0.707107 -0.707107 0.707107 0.707107 33 32.2865)" fill="#F2C94C"/>
</g>
<g id="Rectangle 67 (Stroke)">
<path d="M 7.30468 11.622L 7.30468 0L 10.3047 0L 10.3047 11.622C 10.3047 14.4676 7.9979 16.7743 5.15234 16.7743C 2.30678 16.7743 0 14.4676 0 11.622L 0 0L 3 0L 3 11.622C 3 12.8107 3.96364 13.7743 5.15234 13.7743C 6.34105 13.7743 7.30468 12.8107 7.30468 11.622Z" transform="matrix(0.707107 -0.707107 0.707107 0.707107 36.6433 35.9297)" fill="#333333"/>
</g>
<g id="Ellipse 35">
<path d="M 26 13C 26 20.1797 20.1797 26 13 26C 5.8203 26 0 20.1797 0 13C 0 5.8203 5.8203 0 13 0C 20.1797 0 26 5.8203 26 13Z" transform="translate(20 12)" fill="white"/>
</g>
<g id="Ellipse 35 (Stroke)">
<path fill-rule="evenodd" clip-rule="evenodd" d="M 13 23C 18.5228 23 23 18.5228 23 13C 23 7.47715 18.5228 3 13 3C 7.47715 3 3 7.47715 3 13C 3 18.5228 7.47715 23 13 23ZM 13 26C 20.1797 26 26 20.1797 26 13C 26 5.8203 20.1797 0 13 0C 5.8203 0 0 5.8203 0 13C 0 20.1797 5.8203 26 13 26Z" transform="translate(20 12)" fill="#333333"/>
</g>
<g id="Ellipse 36">
<path d="M 12 6C 12 9.31371 9.31371 12 6 12C 2.68629 12 0 9.31371 0 6C 0 2.68629 2.68629 0 6 0C 9.31371 0 12 2.68629 12 6Z" transform="translate(27 19)" fill="#F2C94C"/>
</g>
</g>
</g>
</svg>

