<svg width="29" height="29" viewBox="0 0 29 29" fill="none" xmlns="http://www.w3.org/2000/svg">
<rect width="29" height="29" rx="9" fill="white"/>
<rect width="29" height="29" rx="9" fill="white"/>
<path d="M27.8995 0H1.18141C0.545267 0 0 0.54375 0 1.17812V27.7313C0 28.4563 0.545267 29 1.18141 29H15.4492V18.125H11.8141V13.5938H15.4492V9.96875C15.4492 6.25313 17.8121 4.35 21.1746 4.35C22.8104 4.35 24.1735 4.53125 24.537 4.53125V8.42813H22.1742C20.3567 8.42813 19.9023 9.33437 19.9023 10.6031V13.5938H24.4462L23.5374 18.125H19.9023L19.9931 29H27.8086C28.4448 29 28.9901 28.4563 28.9901 27.8219V1.17812C29.0809 0.54375 28.5357 0 27.8995 0Z" fill="#4460A0"/>
</svg>
