<svg width="29" height="29" viewBox="0 0 29 29" fill="none" xmlns="http://www.w3.org/2000/svg">
<path d="M20.25 3H8.75C5.57436 3 3 5.57436 3 8.75V20.25C3 23.4256 5.57436 26 8.75 26H20.25C23.4256 26 26 23.4256 26 20.25V8.75C26 5.57436 23.4256 3 20.25 3Z" stroke="url(#paint0_linear)" stroke-width="2.5" stroke-linecap="round" stroke-linejoin="round"/>
<path d="M19.1 13.7756C19.2419 14.7327 19.0784 15.7102 18.6328 16.569C18.1872 17.4278 17.4821 18.1242 16.6178 18.5592C15.7536 18.9942 14.7742 19.1456 13.8189 18.9919C12.8637 18.8382 11.9812 18.3872 11.297 17.703C10.6129 17.0189 10.1618 16.1364 10.0081 15.1811C9.85442 14.2259 10.0058 13.2465 10.4408 12.3822C10.8758 11.518 11.5723 10.8129 12.4311 10.3673C13.2899 9.92166 14.2674 9.75818 15.2245 9.9001C16.2007 10.0449 17.1045 10.4998 17.8024 11.1977C18.5003 11.8955 18.9552 12.7993 19.1 13.7756Z" stroke="url(#paint1_linear)" stroke-width="2.5" stroke-linecap="round" stroke-linejoin="round"/>
<defs>
<linearGradient id="paint0_linear" x1="5" y1="25.5" x2="27" y2="4" gradientUnits="userSpaceOnUse">
<stop stop-color="#F7AD10"/>
<stop offset="1" stop-color="#9508E3"/>
</linearGradient>
<linearGradient id="paint1_linear" x1="8.5" y1="23" x2="21" y2="4" gradientUnits="userSpaceOnUse">
<stop stop-color="#F7AD10"/>
<stop offset="1" stop-color="#9508E3"/>
</linearGradient>
</defs>
</svg>
