<svg width="29" height="29" viewBox="0 0 29 29" fill="none" xmlns="http://www.w3.org/2000/svg">
<rect width="29" height="29" rx="2" fill="white"/>
<rect width="29" height="29" rx="2" fill="white"/>
<path fill-rule="evenodd" clip-rule="evenodd" d="M0 2C0 0.895432 0.895431 0 2 0H27C28.1045 0 29 0.895431 29 2V27C29 28.1045 28.1045 29 27 29H2C0.895432 29 0 28.1045 0 27V2ZM14.9658 11.8635C16.2554 11.8635 17.3009 10.818 17.3009 9.52841C17.3009 8.23877 16.2554 7.19332 14.9658 7.19332C13.6762 7.19332 12.6307 8.23877 12.6307 9.52841C12.6307 10.818 13.6762 11.8635 14.9658 11.8635ZM14.9658 14.5255C17.7256 14.5255 19.9629 12.2882 19.9629 9.52841C19.9629 6.76857 17.7256 4.53128 14.9658 4.53128C12.206 4.53128 9.96866 6.76857 9.96866 9.52841C9.96866 12.2882 12.206 14.5255 14.9658 14.5255ZM20.34 16.5567C20.8822 16.0604 20.9195 15.2185 20.4232 14.6762C19.9269 14.134 19.0849 14.0967 18.5427 14.593C18.246 14.8645 17.663 15.3124 16.9622 15.6853C16.2461 16.0664 15.5349 16.3006 14.9471 16.3006C14.3607 16.3006 13.657 16.0673 12.951 15.6879C12.2595 15.3163 11.6871 14.8701 11.3976 14.6006C10.8596 14.0998 10.0173 14.1299 9.51647 14.668C9.01559 15.206 9.04572 16.0482 9.58377 16.5491C10.0308 16.9652 10.7877 17.5474 11.6909 18.0328C12.1009 18.2531 12.5679 18.4681 13.071 18.6357L10.3592 21.5187C9.85552 22.0541 9.88129 22.8965 10.4167 23.4001C10.9522 23.9038 11.7946 23.878 12.2982 23.3426L14.9988 20.4715L18.0661 23.3942C18.5983 23.9013 19.4408 23.881 19.9479 23.3488C20.455 22.8166 20.4346 21.9741 19.9024 21.467L16.9041 18.61C17.3792 18.447 17.8215 18.2435 18.2127 18.0353C19.1223 17.5513 19.8875 16.9708 20.34 16.5567Z" fill="#F7931E"/>
</svg>
