<svg width="29" height="29" viewBox="0 0 29 29" fill="none" xmlns="http://www.w3.org/2000/svg">
<path d="M28 5.74231C26.9907 6.18462 25.9813 6.53846 24.8037 6.62692C25.9813 5.91923 26.8224 4.76923 27.243 3.44231C26.1495 4.15 24.972 4.59231 23.7103 4.85769C22.7009 3.70769 21.271 3 19.757 3C16.729 3 14.2056 5.56538 14.2056 8.83846C14.2056 9.28077 14.2897 9.72308 14.3738 10.1654C9.74766 9.9 5.71028 7.6 2.93458 4.06154C2.42991 4.94615 2.17757 5.91923 2.17757 6.98077C2.17757 9.01538 3.18692 10.7846 4.61682 11.8462C3.69159 11.8462 2.85047 11.5808 2.09346 11.1385V11.2269C2.09346 14.0577 4.02804 16.3577 6.5514 16.8885C6.04673 16.9769 5.62617 17.0654 5.1215 17.0654C4.78505 17.0654 4.4486 17.0654 4.11215 16.9769C4.78505 19.2769 6.88785 20.9577 9.24299 21.0462C7.39252 22.6385 4.95327 23.5231 2.34579 23.5231C1.92523 23.5231 1.42056 23.5231 1 23.4346C3.52336 25.0269 6.46729 26 9.57944 26C19.757 26 25.3084 17.1538 25.3084 9.45769C25.3084 9.19231 25.3084 8.92692 25.3084 8.75C26.3178 7.86538 27.243 6.89231 28 5.74231Z" fill="#5AA8DF"/>
</svg>
