<svg width="29" height="29" viewBox="0 0 29 29" fill="none" xmlns="http://www.w3.org/2000/svg">
<path d="M27.7469 9.11947C27.7469 9.11947 27.4937 7.26991 26.65 6.4292C25.6375 5.33628 24.4563 5.33628 23.95 5.25221C20.1531 5 14.5 5 14.5 5C14.5 5 8.84688 5 5.05 5.25221C4.54375 5.33628 3.3625 5.33628 2.35 6.4292C1.50625 7.26991 1.25313 9.11947 1.25313 9.11947C1.25313 9.11947 1 11.3053 1 13.4912V15.5089C1 17.6947 1.25313 19.8805 1.25313 19.8805C1.25313 19.8805 1.50625 21.7301 2.35 22.5708C3.3625 23.6637 4.7125 23.5796 5.30312 23.7478C7.49687 23.9159 14.5 24 14.5 24C14.5 24 20.1531 24 23.95 23.7478C24.4563 23.6637 25.6375 23.6637 26.65 22.5708C27.4937 21.7301 27.7469 19.8805 27.7469 19.8805C27.7469 19.8805 28 17.6947 28 15.5089V13.4912C28 11.3053 27.7469 9.11947 27.7469 9.11947ZM11.7156 18.031V10.4646L18.9719 14.2478L11.7156 18.031Z" fill="#CE1312"/>
</svg>
